<!-- Leaf by Jorge Duarte Alvarez from NounProject.com. https://thenounproject.com/icon/leaf-137343/ -->
<svg version="1.1" viewBox="0 0 700 700" xmlns="http://www.w3.org/2000/svg">
 <path d="m321.91 383.41s-29.391 102.55-21.262 115.68c8.1328 13.133 21.262 0 21.262 0s6.875-112.56 20.637-115.68c0 0 28.141 111.93 203.23 28.766l-26.891-18.133s65.031-12.504 62.535-103.8c0 0 2.5039-56.281 9.3789-61.906 0 0-83.793 28.141-101.93 42.52 0 0-11.883 0-38.148 23.141 0 0 99.254-51.277-5.7109-154.45 0 0-33.059-36.895-38.684-95.676 0 0-14.379 73.793-85.047 91.297 0 0-59.406 24.387-56.281 83.793 0 0-1.25 24.387 4.3789 45.023 0 0-12.504-45.652-71.289-62.535 0 0-26.891-12.504-45.023-42.52 0 0-40.023 52.527-10.008 132.57l-30.645-10.629s21.887 78.164 40.645 95.676c18.762 17.508 84.43 85.031 168.85 6.8672z"/>
</svg>